<?xml version="1.0" encoding="UTF-8"?>
<svg id="Layer_2" data-name="Layer 2" xmlns="http://www.w3.org/2000/svg" viewBox="0 0 448 432">
  <defs>
    <style>
      .cls-1 {
        fill: #65a254;
      }
    </style>
  </defs>
  <g id="Layer_1-2" data-name="Layer 1">
    <g>
      <path class="cls-1" d="M448,216c0,13.25-10.75,24-24,24H24c-13.25,0-24-10.75-24-24s10.75-24,24-24h10.77c10.53-62.46,51.25-114.59,106.66-141.09l4.9,50.24c.64,6.59,6.38,11.55,13.1,10.78,6.59-.64,11.42-6.5,10.78-13.09l-8.34-85.66c-.34-3.42.75-6.7,3.06-9.23,2.3-2.56,5.46-3.95,8.88-3.95h100.37c3.42,0,6.59,1.39,8.9,3.94,2.3,2.53,3.39,5.81,3.06,9.23l-8.34,85.66c-.64,6.59,4.19,12.45,10.78,13.09.4.06.78.08,1.17.08,6.1,0,11.33-4.64,11.94-10.85l4.9-50.24c55.41,26.48,96.13,78.61,106.66,141.09h10.77c13.25,0,24,10.75,24,24Z"/>
      <path class="cls-1" d="M447.07,387.46c-13.07,26.38-40.19,44.54-71.63,44.54s-60.9-19.78-73.25-48h-156.38c-12.35,28.22-40.46,48-73.25,48S14,413.84.93,387.46c-.78-1.55.45-3.46,2.19-3.46h69.44l16-32-16-32H3.12c-1.74,0-2.96-1.9-2.19-3.46,13.07-26.37,40.19-44.54,71.63-44.54s60.9,19.78,73.25,48h156.38c12.35-28.22,40.46-48,73.25-48s58.56,18.18,71.63,44.54c.78,1.55-.45,3.46-2.19,3.46h-69.44l-16,32,16,32h69.44c1.74,0,2.98,1.9,2.19,3.46h0Z"/>
    </g>
  </g>
</svg>