<?xml version="1.0" encoding="UTF-8"?>
<svg id="Layer_2" data-name="Layer 2" xmlns="http://www.w3.org/2000/svg" viewBox="0 0 512 512">
  <defs>
    <style>
      .cls-1 {
        fill: #65a254;
      }
    </style>
  </defs>
  <g id="Layer_1-2" data-name="Layer 1">
    <g>
      <ellipse class="cls-1" cx="240.92" cy="60" rx="59.57" ry="60"/>
      <path class="cls-1" d="M147.66,156.63c-5.99-7.49-17.37-7.51-23.39-.05l-92.26,114.42h207.18l-91.53-114.37Z"/>
      <path class="cls-1" d="M230.29,170.5l-18.22,18.59,65.55,81.91h63.45l-88.86-99.97c-5.73-6.43-15.78-6.8-21.92-.53h0Z"/>
      <path class="cls-1" d="M300.95,406c0-24.81,20.19-45,45-45h15.05v-60H15c-8.28,0-15,6.72-15,15v45h131c8.28,0,15,6.72,15,15s-6.72,15-15,15H0v30h176c8.28,0,15,6.72,15,15s-6.72,15-15,15H0v46c0,8.28,6.72,15,15,15h226v-61c0-24.81,20.19-45,45-45h14.95ZM236,391h-45c-8.28,0-15-6.72-15-15s6.72-15,15-15h45c8.28,0,15,6.72,15,15s-6.72,15-15,15Z"/>
      <path class="cls-1" d="M451,269.49c34.19-6.97,60-37.27,60-73.49v-60c0-41.35-33.64-75-75-75s-75,33.65-75,75v60c0,36.22,25.81,66.52,60,73.49v31.51h30v-31.51Z"/>
      <path class="cls-1" d="M497,301h-46v45c0,8.28-6.72,15-15,15s-15-6.72-15-15v-45h-30v75c0,8.28-6.72,15-15,15h-30.05c-8.27,0-15,6.73-15,15v15c0,8.28-6.72,15-15,15h-29.95c-8.27,0-15,6.73-15,15v61h226c8.28,0,15-6.72,15-15v-181c0-8.28-6.72-15-15-15Z"/>
    </g>
  </g>
</svg>