<?xml version="1.0" encoding="UTF-8"?>
<svg id="Layer_2" data-name="Layer 2" xmlns="http://www.w3.org/2000/svg" viewBox="0 0 512 512">
  <defs>
    <style>
      .cls-1 {
        fill: #65a254;
      }
    </style>
  </defs>
  <g id="Layer_1-2" data-name="Layer 1">
    <path class="cls-1" d="M436.99,74.95c-99.99-99.96-262.08-99.93-362.04.06s-99.93,262.08.06,362.04c99.99,99.96,262.08,99.93,362.04-.05,48.01-48.02,74.97-113.15,74.95-181.05-.01-67.89-26.99-132.99-75.01-180.99ZM387.7,356.61s-.02.02-.03.03v-.08l-12.97,12.89c-16.77,16.99-41.21,23.98-64.43,18.43-23.39-6.26-45.64-16.23-65.88-29.52-18.81-12.02-36.23-26.07-51.97-41.9-14.48-14.37-27.48-30.15-38.83-47.1-12.41-18.24-22.23-38.11-29.18-59.05-7.97-24.6-1.37-51.58,17.07-69.72l15.19-15.19c4.22-4.24,11.09-4.26,15.33-.03.01.01.02.02.03.03l47.96,47.96c4.24,4.22,4.26,11.09.03,15.33l-.03.03-28.16,28.16c-8.08,7.99-9.1,20.69-2.39,29.87,10.18,13.98,21.46,27.13,33.71,39.34,13.66,13.72,28.51,26.2,44.37,37.29,9.17,6.39,21.6,5.32,29.52-2.56l27.22-27.65c4.22-4.24,11.08-4.26,15.33-.03l.03.03,48.04,48.13c4.24,4.22,4.26,11.08.04,15.32Z"/>
  </g>
</svg>