<?xml version="1.0" encoding="UTF-8"?>
<svg id="Layer_2" data-name="Layer 2" xmlns="http://www.w3.org/2000/svg" viewBox="0 0 480 480">
  <defs>
    <style>
      .cls-1 {
        fill: #65a254;
        fill-rule: evenodd;
      }
    </style>
  </defs>
  <g id="Layer_1-2" data-name="Layer 1">
    <path class="cls-1" d="M408.04,411.37l-15.31,15.31c-6.16,6.16-16.14,6.16-22.3,0h0c-33.42-33.42-90.67-9.7-90.67,37.56,0,8.71-7.05,15.76-15.76,15.77h-48c-8.71,0-15.76-7.06-15.76-15.77h0c0-47.32-57.22-71.02-90.68-37.56-6.16,6.16-16.14,6.16-22.3,0,0,0,0,0,0,0l-33.94-33.94c-6.16-6.16-6.16-16.14,0-22.3,33.42-33.42,9.71-90.68-37.56-90.68C7.06,279.76,0,272.71,0,264v-48c0-8.71,7.06-15.76,15.76-15.76h0c47.26,0,70.98-57.26,37.56-90.68-6.16-6.16-6.16-16.14,0-22.3l33.94-33.94c6.16-6.16,16.14-6.16,22.3,0,33.42,33.42,90.68,9.71,90.68-37.56C200.24,7.06,207.3,0,216,0h48c8.71,0,15.76,7.06,15.77,15.76h0c0,47.27,57.26,70.98,90.67,37.56,6.16-6.16,16.14-6.16,22.3,0l33.94,33.94c6.16,6.16,6.16,16.14,0,22.3-3.59,3.57-6.67,7.63-9.14,12.05h-48.7c-17.63.02-31.92,14.3-31.94,31.93v23.91c-14.47-22.39-36.24-39.1-61.62-47.28v-8.75c0-10.49-8.51-18.99-19-19h-35.14c-12.97-12.81-33.83-12.81-46.8,0h-35.14c-10.49,0-18.99,8.51-19,19v9.43c0,10.49,8.51,18.99,19,19h28.87c-9,7.2-16.89,15.69-23.38,25.21l-23.93-13.4h-26.6c-10.49,0-18.99,8.51-19,19v85.11c0,10.49,8.51,18.99,19,19h26.6l10.64-5.95c16.41,45.87,59.88,76.49,108.6,76.49,2.29,0,4.57-.07,6.83-.2,1.31,3.59,3.42,6.85,6.15,9.52,11.22,11.19,29.38,11.19,40.61,0,7.67-7.66,8.85-17.02,6.62-26.27,12.23-7.51,22.96-17.22,31.64-28.64,1.64.48,3.34.73,5.05.75v23.82c0,16.65,13.5,30.14,30.15,30.14,14.62,0,27.14-10.5,29.68-24.9l11.32,4.26v67.58ZM337.14,296.48h61.23c2.76,0,4.99-2.24,5-5v-22.29c0-2.76-2.24-4.99-5-5h-61.23c-2.76,0-4.99,2.24-5,5v22.29c0,2.76,2.24,4.99,5,5h0ZM480,451.02v-222.14h-131.85c-2.76,0-4.99,2.24-5,5v16.3h55.22c10.49,0,18.99,8.51,19,19v22.29c0,10.49-8.51,18.99-19,19h-1.18v14.27l24.86,9.35v116.92c.09,16,13.14,28.9,29.15,28.81,15.87-.09,28.72-12.94,28.81-28.81ZM451.02,440.8c5.1,0,9.23,4.13,9.23,9.23s-4.13,9.23-9.23,9.23c-5.1,0-9.23-4.13-9.23-9.23h0c0-5.1,4.13-9.23,9.23-9.23ZM368.83,135.61c-9.9.02-17.91,8.04-17.93,17.94v61.34h32.29v-36.23c0-5.94,4.82-10.76,10.76-10.76h81.05c2.76,0,5-2.24,5-5v-9.35c-.02-9.9-8.04-17.92-17.94-17.94h-93.23ZM383.18,310.48h-32.28v23.82c0,8.92,7.23,16.14,16.15,16.14,8.91,0,16.13-7.23,16.14-16.14v-23.82h0ZM416.88,196.6c-2.76,0-4.99,2.24-5,5v13.29h68.12v-13.29c0-2.76-2.24-4.99-5-5h-58.12ZM283.69,354.74c5.72-5.72,3.6-13.56,0-20.81l-5.93-11.91c-1.22-2.47-4.22-3.48-6.69-2.26-.98.49-1.78,1.28-2.26,2.26l-5.93,11.91c-3.6,7.24-5.72,15.09,0,20.81,5.76,5.72,15.05,5.72,20.81,0ZM197.74,106.83c-10.67,0-19.32,8.65-19.32,19.32s8.65,19.32,19.32,19.32,19.32-8.65,19.32-19.32c0-10.67-8.65-19.32-19.32-19.32,0,0,0,0,0,0ZM169.48,188.22h56.52v-10.43c0-2.76-2.24-5-5-5h-13.54v-14.76c-6.33,1.92-13.1,1.92-19.43,0v14.76h-13.54c-2.76,0-4.99,2.24-5,5v10.43ZM94.16,175.68c-2.76,0-5,2.24-5,5v85.11c0,2.76,2.24,5,5,5h15.95v-95.1h-15.95ZM124.11,179.6v87.27l15.33-8.58c1.6-.87,2.58-2.55,2.56-4.36v-61.38c.02-1.82-.96-3.5-2.56-4.36l-15.33-8.58h0ZM256.28,135.86c2.76,0,4.99-2.24,5-5v-9.43c0-2.76-2.24-5-5-5h-26.66c1.92,6.33,1.92,13.09,0,19.43h26.66ZM139.2,135.86h26.66c-1.92-6.33-1.92-13.09,0-19.43h-26.66c-2.76,0-5,2.24-5,5v9.43c0,2.76,2.24,4.99,5,5h0ZM156,202.22v42.03h70c14.49.05,26.22,11.78,26.27,26.27v4.95h42.03v-4.95c-.05-37.7-30.6-68.25-68.3-68.3h-70ZM296.43,289.47h-46.28l-1.18,3.88c-.81,2.63.67,5.42,3.3,6.23.48.15.98.22,1.48.22h39.06c2.75.01,4.99-2.21,5-4.97,0-.5-.07-1-.22-1.48l-1.18-3.88Z"/>
  </g>
</svg>