<?xml version="1.0" encoding="UTF-8"?>
<svg id="Layer_2" data-name="Layer 2" xmlns="http://www.w3.org/2000/svg" viewBox="0 0 470.74 475.01">
  <defs>
    <style>
      .cls-1 {
        fill: #65a254;
      }
    </style>
  </defs>
  <g id="Layer_1-2" data-name="Layer 1">
    <path class="cls-1" d="M24.96,292.42l-13.28,4.29c2.1,6.49,4.59,12.98,7.19,19.27l12.88-5.49c-2.6-5.89-4.79-11.98-6.79-18.07Z"/>
    <path class="cls-1" d="M49.73,369.21c4.19,5.49,8.59,10.79,13.18,15.78l10.39-9.38c-4.29-4.79-8.49-9.79-12.38-14.88l-11.18,8.49Z"/>
    <path class="cls-1" d="M13.98,230.91c0-3,.1-6.09.3-9.19l-13.98-.8c-.2,3.4-.3,6.69-.3,9.99,0,1.7,0,3.49.1,5.29l13.98-.5c-.1-1.6-.1-3.19-.1-4.79Z"/>
    <path class="cls-1" d="M40.04,328.07l-12.38,6.49c3.2,6.09,6.59,11.98,10.29,17.78l11.78-7.49c-3.49-5.39-6.69-11.09-9.69-16.78Z"/>
    <path class="cls-1" d="M15.88,254.68l-13.78,2.2c.9,6.09,2.3,12.68,3.99,20.07l13.58-3.19c-1.7-7.09-2.89-13.38-3.79-19.07Z"/>
    <path class="cls-1" d="M217.59,444.7c-22.88-1.21-45.41-6.13-66.71-14.58-9.06-3.61-17.83-7.88-26.26-12.78-3-1.7-5.99-3.59-8.89-5.49-1.5-.9-2.9-1.9-4.29-2.89-6.29-4.31-12.36-8.95-18.17-13.88l-9.09,10.58c6.17,5.3,12.63,10.23,19.37,14.78,1.5,1,3.1,2.1,4.59,3.1,3.1,2,6.29,3.99,9.59,5.79,9.03,5.2,18.4,9.77,28.06,13.68,22.69,9.04,46.71,14.3,71.1,15.58,4.59.3,11.28.5,16.78.5h2.8l-.2-13.98c-5.79.1-13.58-.1-18.67-.4Z"/>
    <path class="cls-1" d="M233.86,335.46c2.68-12.43,7.23-24.38,13.48-35.45-4.49-.5-8.99-.9-13.48-1v36.45Z"/>
    <path class="cls-1" d="M219.88,299.01c-25.53.95-50.54,7.46-73.29,19.07,15.18,37.15,40.24,66.51,73.29,83.98v-103.06Z"/>
    <path class="cls-1" d="M92.37,340.66c11-11.19,23.38-20.92,36.85-28.96-8.11-24.26-12.45-49.62-12.88-75.19h-63.91c1.51,38.16,15.55,74.76,39.94,104.15Z"/>
    <path class="cls-1" d="M52.42,222.52h63.91c.7-26.96,5.09-52.33,12.88-75.19-13.45-8.07-25.83-17.8-36.85-28.96-24.38,29.39-38.42,65.99-39.94,104.15Z"/>
    <path class="cls-1" d="M191.53,400.47c-24.86-18.77-44.33-44.64-57.22-75.49-11.86,7.35-22.79,16.1-32.55,26.06,24.27,25.13,55.56,42.35,89.77,49.43Z"/>
    <path class="cls-1" d="M256.83,285.53c1.05-1.46,2.19-2.86,3.4-4.19,16.23-19.68,38.07-33.96,62.61-40.94.2,0,.3-.1.5-.1,0-1.2.1-2.5.1-3.7h-89.57v48.53c7.33.29,14.63.99,21.87,2.1.4-.7.8-1.2,1.1-1.7Z"/>
    <path class="cls-1" d="M191.53,58.46c-34.21,7.08-65.5,24.3-89.77,49.43,9.74,9.99,20.67,18.75,32.55,26.06,12.88-30.86,32.25-56.72,57.22-75.49Z"/>
    <path class="cls-1" d="M401.33,236.5h-26.86c9.03,1.17,17.9,3.31,26.46,6.39.2-2.2.3-4.29.4-6.39Z"/>
    <path class="cls-1" d="M311.95,153.82c-24.25,12.32-50.9,19.21-78.09,20.17v48.53h89.57c-.44-23.34-4.31-46.49-11.48-68.7Z"/>
    <path class="cls-1" d="M337.42,237c1.3-.2,2.7-.4,3.99-.6h-3.99v.6Z"/>
    <path class="cls-1" d="M360.98,117.77c-10.95,11.19-23.26,20.95-36.65,29.06,7.89,22.97,12.38,48.43,13.08,75.59h63.91c-1.49-38.39-15.68-75.19-40.34-104.65Z"/>
    <path class="cls-1" d="M351.6,107.39c-24.25-24.8-55.32-41.84-89.27-48.93,24.77,18.67,44.14,44.44,57.02,75.09,11.79-7.35,22.62-16.14,32.25-26.16Z"/>
    <path class="cls-1" d="M233.86,56.96v103.05c25.53-.96,50.53-7.58,73.2-19.37-15.08-37.05-40.24-66.31-73.2-83.68Z"/>
    <path class="cls-1" d="M281.9,346.65c-1.38-2.51-4.42-3.6-7.08-2.52-2.66,1.07-4.1,3.96-3.35,6.72.75,2.77,3.44,4.54,6.27,4.13,2.84-.41,4.92-2.87,4.85-5.74.02-.34-.02-.67-.1-1-.3-.49-.51-1.03-.6-1.6Z"/>
    <path class="cls-1" d="M367.87,319.38c-3.2,0-5.79,2.59-5.79,5.79s2.59,5.79,5.79,5.79,5.79-2.59,5.79-5.79-2.59-5.79-5.79-5.79Z"/>
    <path class="cls-1" d="M411.01,298.22c-2.14-.02-4.11,1.15-5.12,3.04s-.88,4.18.32,5.94c0,.1.1.1.1.2,1.07,1.53,2.83,2.42,4.69,2.39,3.2,0,5.79-2.59,5.79-5.79s-2.59-5.79-5.79-5.79Z"/>
    <path class="cls-1" d="M408.02,261.07c-15.56-7.77-32.73-11.81-50.13-11.78-33.59,0-65.44,14.98-86.88,40.84-1,1.2-2,2.5-3,3.8-22.6,29.74-29,68.75-17.08,104.15.3,1,.7,2.09,1.1,3.09,1.1,2.9,2.2,5.69,3.49,8.49,20.85,44.95,68.59,71.03,117.67,64.3,49.09-6.73,88.05-44.69,96.04-93.59,7.99-48.9-16.85-97.29-61.24-119.3ZM312.15,438.51c0,3.86-3.13,6.99-6.99,6.99s-6.99-3.13-6.99-6.99v-57.62c0-3.86,3.13-6.99,6.99-6.99s6.99,3.13,6.99,6.99v57.62ZM344.81,438.51c0,3.86-3.13,6.99-6.99,6.99s-6.99-3.13-6.99-6.99v-43.94c0-3.86,3.13-6.99,6.99-6.99s6.99,3.13,6.99,6.99v43.94ZM377.66,438.51c0,3.86-3.13,6.99-6.99,6.99s-6.99-3.13-6.99-6.99v-70.8c0-3.86,3.13-6.99,6.99-6.99s6.99,3.13,6.99,6.99v70.8ZM417.6,438.51c0,3.86-3.13,6.99-6.99,6.99s-6.99-3.13-6.99-6.99v-96.76c0-3.86,3.13-6.99,6.99-6.99s6.99,3.13,6.99,6.99v96.76ZM411.01,323.68c-4.17,0-8.22-1.33-11.58-3.8l-11.98,6.79c-.69,8.68-6.99,15.89-15.5,17.73-8.52,1.84-17.23-2.12-21.45-9.74l-10.88-2.1c-.96,8.07-6.77,14.72-14.64,16.75-7.86,2.03-16.17-.97-20.92-7.56l-7.69,6.29c0,.4.1.8.1,1.2,0,10.92-8.85,19.77-19.77,19.77s-19.77-8.85-19.77-19.77,8.85-19.77,19.77-19.77c5.07,0,9.94,1.96,13.58,5.49l10.39-8.49c1.83-9.26,9.93-15.95,19.37-15.98,5.84-.04,11.39,2.57,15.08,7.09l13.58,2.6c2.25-8.7,10.09-14.77,19.07-14.78,6.08.03,11.81,2.82,15.58,7.59l8.39-4.69c-.32-1.41-.49-2.85-.5-4.29-.04-8,4.75-15.24,12.13-18.34,7.39-3.09,15.91-1.42,21.58,4.22,5.68,5.64,7.38,14.16,4.33,21.56-3.05,7.4-10.27,12.23-18.27,12.23Z"/>
    <path class="cls-1" d="M219.88,236.5h-89.57c.41,23.24,4.25,46.29,11.39,68.4,24.34-12.13,51-18.91,78.18-19.87v-48.53Z"/>
    <path class="cls-1" d="M324.73,326.77c-1.72-2.24-4.81-2.9-7.3-1.56s-3.64,4.28-2.73,6.95c.92,2.67,3.63,4.29,6.42,3.82,2.79-.47,4.82-2.89,4.81-5.71-.01-.79-.18-1.57-.5-2.3-.27-.37-.5-.78-.7-1.2Z"/>
    <path class="cls-1" d="M219.88,56.96c-33.05,17.47-58.21,46.83-73.29,83.98,22.76,11.6,47.77,18.11,73.29,19.07V56.96Z"/>
    <path class="cls-1" d="M233.86,401.97c1-.5,2-1.1,3.1-1.7-1.2-3.8-2.2-7.69-3.1-11.48v13.18Z"/>
    <path class="cls-1" d="M219.88,173.99c-27.18-.96-53.84-7.73-78.18-19.87-7.14,22.12-10.97,45.17-11.39,68.4h89.57v-48.53Z"/>
    <path class="cls-1" d="M46.63,106.39h32.16v-13.98h-15.08C99.96,51.37,164.56,9.93,241.95,14.32c121.52,6.79,198.71,111.34,203.11,208.5.3,6.29.2,12.68-.1,18.77l13.98.8c.38-6.75.42-13.52.1-20.27-2.29-52.12-24.26-105.45-60.21-146.09C359.28,30.55,302.86,3.21,242.65.34c-40.04-2.3-80.88,6.99-118.23,26.66-26.69,14.23-50.66,33.06-70.8,55.62v-15.68h-13.98v32.45c0,1.86.72,3.64,2.04,4.95,1.31,1.31,3.1,2.05,4.95,2.04Z"/>
  </g>
</svg>