<?xml version="1.0" encoding="UTF-8"?>
<svg id="Layer_2" data-name="Layer 2" xmlns="http://www.w3.org/2000/svg" viewBox="0 0 525.18 527.58">
  <defs>
    <style>
      .cls-1 {
        fill: #65a254;
      }
    </style>
  </defs>
  <g id="Layer_1-2" data-name="Layer 1">
    <g>
      <polygon class="cls-1" points="326.01 150.28 326.01 238.51 199.17 238.51 199.17 150.28 148.62 150.28 148.62 377.3 199.17 377.3 199.17 289.06 326.01 289.06 326.01 377.3 376.56 377.3 376.56 150.28 326.01 150.28"/>
      <g>
        <path class="cls-1" d="M237.31,49.26v152.79h50.55V49.26c99.09,11.55,177.7,90.16,189.25,189.25h48.06C512.45,104.68,399.75,0,262.59,0S12.72,104.68,0,238.51h48.06c11.55-99.09,90.16-177.7,189.25-189.25Z"/>
        <path class="cls-1" d="M477.12,289.06c-12.52,107.38-103.79,190.72-214.53,190.72S60.58,396.45,48.06,289.06H0c12.72,133.83,125.43,238.51,262.59,238.51s249.87-104.68,262.59-238.51h-48.06Z"/>
      </g>
    </g>
  </g>
</svg>