<?xml version="1.0" encoding="UTF-8"?>
<svg id="Layer_2" data-name="Layer 2" xmlns="http://www.w3.org/2000/svg" viewBox="0 0 229.53 256.03">
  <defs>
    <style>
      .cls-1 {
        fill: #fff;
      }
    </style>
  </defs>
  <g id="Layer_1-2" data-name="Layer 1">
    <path class="cls-1" d="M165.53,0c-.71,18.14,4.68,34.98,18.47,47.03,13.42,11.72,28.22,13.64,45.53,13.97v52.5l-1.66,1.34c-14.62-.11-28.92-1.27-42.88-5.8-6.66-2.16-12.81-5.92-19.46-8.03-2.69,37.94,9.54,81.06-11.2,115.3-25.79,42.56-85.09,52.97-123.82,21.21-62.82-51.51-21.58-151.09,59.56-145.56,3.37.23,9.01.76,11.46,2.54v55.5c-12.52-3.75-21.91-7.06-33.91.59-27.21,17.33-5.89,62.15,26.28,49.28,7.09-2.84,17.63-13.54,17.63-21.37V0h54ZM151.53,15h-25v164.5c0,6.04-6.45,17.79-10.49,22.51-19.79,23.15-56.97,18.73-71.03-8-15.79-30.01,7.88-65.82,41.52-63.02v-24c-57.91-3.22-93.9,64.59-55.51,110.01,29.24,34.59,83.43,31.17,108.92-6.1,12.99-19,10.64-34,10.55-55.37-.12-28.18.16-56.37.05-84.54,18.16,14.8,38.68,27.79,62.99,28v-24c-31.58-1.96-59.1-28.5-62-60Z"/>
  </g>
</svg>