<?xml version="1.0" encoding="UTF-8"?>
<svg id="Layer_2" data-name="Layer 2" xmlns="http://www.w3.org/2000/svg" viewBox="0 0 448 448">
  <defs>
    <style>
      .cls-1 {
        fill: #65a254;
      }
    </style>
  </defs>
  <g id="Layer_1-2" data-name="Layer 1">
    <g id="Ikon">
      <path class="cls-1" d="M432,320v96c0,17.67-14.33,32-32,32h-16c-17.67,0-32-14.33-32-32v-96h80ZM16,320v96c0,17.67,14.33,32,32,32h16c17.67,0,32-14.33,32-32v-96H16ZM416,208H32c-17.66.02-31.98,14.34-32,32v16c.02,17.66,14.34,31.98,32,32h384c17.66-.02,31.98-14.34,32-32v-16c-.02-17.66-14.34-31.98-32-32ZM320,320v96h-192v-96h192ZM256,368c0-8.83-7.16-16-15.99-16h-32.01c-8.84,0-16,7.16-16,16s7.16,16,16,16h32c8.83,0,16-7.16,16-15.99h0ZM368,80v96H80v-96C80,35.82,115.82,0,160,0h128c44.18,0,80,35.82,80,80ZM186.12,97.1l32-26.67c6.8-5.64,7.74-15.73,2.1-22.53s-15.73-7.74-22.53-2.1c-.02.02-.05.04-.07.06l-32,26.67c-6.8,5.64-7.75,15.73-2.1,22.53s15.73,7.75,22.53,2.1c.02-.02.05-.04.07-.06ZM304.42,48.03c-5.76-6.69-15.85-7.46-22.56-1.72l-96,82.46c-6.7,5.76-7.47,15.86-1.72,22.56s15.86,7.47,22.56,1.72h0l96-82.46c6.7-5.76,7.47-15.86,1.72-22.56Z"/>
    </g>
  </g>
</svg>