<?xml version="1.0" encoding="UTF-8"?>
<svg id="Layer_2" data-name="Layer 2" xmlns="http://www.w3.org/2000/svg" viewBox="0 0 459.18 464">
  <defs>
    <style>
      .cls-1 {
        fill: #65a254;
      }
    </style>
  </defs>
  <g id="Layer_1-2" data-name="Layer 1">
    <g>
      <path class="cls-1" d="M266.38,128.01h.02c10.04,0,19.49,3.9,26.58,11.01s11.02,16.55,11.02,26.6v20.78c0,20.74-16.86,37.61-37.61,37.62-7.76,0-15.42-1.24-22.78-3.7l-3.61-1.2v84.9h104v-63.79l104,76.26v-97.37l-3.62,1.21c-7.35,2.45-15.01,3.69-22.76,3.69-20.74,0-37.62-16.87-37.62-37.61v-20.78c0-20.74,16.87-37.61,37.61-37.61,7.77,0,15.43,1.24,22.79,3.7l3.6,1.2v-60.9c0-4.42-3.58-8-8-8h-83.1l9.75-29.23c.9-2.7,1.35-5.5,1.35-8.35,0-14.57-11.85-26.42-26.42-26.42h-11.17c-14.57,0-26.42,11.85-26.42,26.42,0,2.84.46,5.65,1.35,8.34l9.75,29.23h-67.1c-4.42,0-8,3.58-8,8v60.9l3.62-1.2c7.36-2.46,15.02-3.7,22.77-3.7h0Z"/>
      <path class="cls-1" d="M50.34,277.08c3.52,3.53,7.55,2.21,8.72,1.75,1.15-.49,4.94-2.44,4.94-7.4v-15.43h64v15.43c0,4.96,3.78,6.91,4.94,7.4,1.16.46,5.2,1.78,8.72-1.74l10.92-10.9,37.82,37.82h33.6v-107.09l24.67,8.21c5.73,1.91,11.69,2.88,17.72,2.88,11.91,0,21.61-9.7,21.61-21.61v-20.78c0-5.78-2.25-11.2-6.33-15.28-4.08-4.09-9.5-6.33-15.27-6.33h-.02c-6.02,0-11.98.97-17.71,2.87l-24.67,8.23v-83.11c0-4.42-3.58-8-8-8h-83.1l9.75-29.23c.9-2.7,1.35-5.5,1.35-8.35C144,11.85,132.15,0,117.58,0h-11.17C91.85,0,80,11.85,80,26.42c0,2.84.46,5.65,1.35,8.34l9.75,29.23H24c-4.42,0-8,3.58-8,8v217.6l23.42-23.42,10.92,10.9ZM184,152c8.84,0,16,7.16,16,16s-7.16,16-16,16-16-7.16-16-16,7.16-16,16-16ZM120,152c8.84,0,16,7.16,16,16s-7.16,16-16,16-16-7.16-16-16,7.16-16,16-16ZM56,152c8.84,0,16,7.16,16,16s-7.16,16-16,16-16-7.16-16-16,7.16-16,16-16Z"/>
      <path class="cls-1" d="M459.18,344.52l-99.18-72.73v48.21h-170.74l-2.34,2.34c-3.51,3.5-2.22,7.55-1.75,8.72.48,1.15,2.43,4.94,7.39,4.94h15.43v48h152v46.48l99.18-85.96Z"/>
      <path class="cls-1" d="M170.39,337.18c-3.71-8.96-1.86-18.78,4.82-25.74l-22.64-22.64c-6.95,6.66-16.76,8.53-25.74,4.82-8.97-3.71-14.6-11.96-14.82-21.61h-32.02c-.21,9.65-5.84,17.9-14.82,21.61s-18.77,1.86-25.74-4.82l-22.63,22.65c6.67,6.97,8.52,16.78,4.82,25.74-3.72,8.97-11.97,14.6-21.62,14.81v32.02c9.65.21,17.9,5.84,21.61,14.82,3.71,8.96,1.86,18.78-4.82,25.74l22.64,22.64c6.97-6.66,16.78-8.51,25.74-4.82,8.97,3.71,14.6,11.96,14.82,21.61h32.02c.21-9.65,5.84-17.9,14.82-21.61s18.77-1.86,25.74,4.82l22.64-22.64c-6.67-6.97-8.52-16.78-4.82-25.74,3.71-8.97,11.96-14.6,21.61-14.82v-32.02c-9.65-.21-17.9-5.84-21.61-14.82ZM96,424c-30.93,0-56-25.07-56-56s25.07-56,56-56,56,25.07,56,56-25.07,56-56,56Z"/>
      <circle class="cls-1" cx="96" cy="368" r="24"/>
    </g>
  </g>
</svg>