<?xml version="1.0" encoding="UTF-8"?>
<svg id="Layer_2" data-name="Layer 2" xmlns="http://www.w3.org/2000/svg" viewBox="0 0 1080 1080">
  <defs>
    <style>
      .cls-1, .cls-2 {
        fill: #b4f2f1;
      }

      .cls-2 {
        font-family: MVBoli, 'MV Boli';
        font-size: 20.1px;
      }

      .cls-3 {
        fill: #107a8a;
      }
    </style>
  </defs>
  <g id="Layer_1-2" data-name="Layer 1">
    <g>
      <rect class="cls-3" width="1080" height="1080"/>
      <g>
        <g>
          <path class="cls-1" d="M434.48,834.85c-5.26-.56-10.53-.99-15.77-1.69-21.22-2.84-41.2-9.35-59.63-20.38-2.51-1.5-5.08-2.9-7.63-4.34l.23-.82c.92.1,1.88.07,2.76.31,12.07,3.26,24.38,4.17,36.8,3.44,22.15-1.3,43.6-5.78,63.75-15.3,12.85-6.07,22.49-15.76,29.23-28.21,4.76-8.81,9.12-17.84,13.65-26.78.36-.71.58-1.5.96-2.53-3.65-.33-7.04-.62-10.44-.94-24.89-2.34-47.7-10.13-67.14-26.25-10.15-8.42-18.03-18.47-22.76-31.15-3.37-9.03-6.12-18.05-7.23-27.6-.99-8.54-1.08-17.09.19-25.6,1.53-10.27,2.57-20.66,4.92-30.74,8.62-36.97,24.8-70.47,47.57-100.81,11.73-15.62,23.16-31.49,36.57-45.79,17.07-18.2,35.4-34.88,56.66-48.17,8.27-5.17,16.21-10.88,24.31-16.33.3-.2.66-.31,1.38-.63-6.57-1.88-12.55-3.17-18.2-5.32-5.86-2.23-11.51-5.07-17.03-8.06-3.42-1.86-5.45-5.15-6.82-8.89-2.85-7.81-5.24-15.61-4.83-24.11.68-13.85,5.05-26.54,11.49-38.62,7.01-13.12,17.66-23.09,28.47-33.02,11.2-10.29,23.92-17.19,38.85-19.97,3.36-.63,6.78-.94,10.18-1.4,1.49,0,2.98,0,4.47,0,3.77.44,7.59.66,11.31,1.36,12.72,2.38,20.32,10.36,23.19,22.66,1.06,4.54,1.12,9.45.83,14.14-.84,13.72-2.09,27.42-3.17,41.14-.01.16.06.34.18,1.02,33.37-9.34,62.38-25.76,86.77-51.03-.15,1.37-.06,2.83-.5,4.1-3.62,10.51-7.7,20.88-10.94,31.5-3.17,10.37-9.06,18.13-18.26,23.89-10.78,6.74-21.22,14.02-31.72,21.2-11.51,7.87-22.93,15.86-34.32,23.89-1,.71-1.87,2.06-2.16,3.26-3.97,16.38-7.65,32.84-11.8,49.17-1.86,7.33-4.62,14.42-6.97,21.63-.27-.07-.53-.14-.8-.21,3.1-21.66,6.21-43.32,9.41-65.65-1.5.81-2.22,1.17-2.91,1.58-21.25,12.69-41.65,26.67-61.85,40.96-18.47,13.06-36.82,26.25-53.98,41.02-21.87,18.81-42.14,39.16-60.14,61.76-7.31,9.18-15.06,18.04-20.7,28.39-4.12,7.57-7.87,15.34-11.58,23.12-2.78,5.81-3.5,12.13-3.33,18.48.24,8.77,1.52,17.4,4.84,25.61,4.26,10.54,11.41,18.85,20.04,26.02,14.91,12.39,32.26,19.52,51.02,23.66,10.57,2.33,21.25,3.54,32.04,3.85,1.01.03,2.03,0,3.33,0,1.87-9.31,3.83-18.46,5.52-27.65,2.71-14.68,4.58-29.56,8.04-44.06,3.67-15.36,10.41-29.57,20.75-41.79,3.68-4.35,8.23-7.59,13.6-9.43,6.73-2.31,13.57-4.3,20.66-6.52-3.89-9.17,1.37-17.34,4.5-25.99,6.98-19.24,17.56-36.12,32.66-49.94,7.66-7.01,16.57-12.39,26.6-15.36,16.8-4.97,29.85.38,42.17,14.25,9.54,10.74,12.64,23.97,13.76,37.81,1.91,23.53-3.24,45.96-10.73,68.05-5.52,16.29-11.96,32.16-20.79,46.95-19.57,32.76-45.8,58.97-78.42,78.69-17.35,10.5-35.4,19.81-54.8,25.84-5.93,1.84-8.19,4.54-9.74,10.14-6.62,23.93-16.86,46.18-32.65,65.59-5.83,7.17-12.13,13.88-20.18,18.66-6.32,3.76-13.28,5.64-20.48,6.81-2.36.38-4.72.75-7.07,1.13h-16.21ZM542.14,679.72c6.75-1.31,13.42-2.38,19.99-3.92,16.88-3.94,32.21-11.67,47.37-19.77,22.82-12.19,42.53-28.06,57.36-49.44,4.79-6.91,9.72-14.01,12.83-21.73,5.78-14.36,5.95-29.5,3.12-44.69-1.88-10.08-4.73-19.83-9.22-29.05-.66-1.36-1.67-2.87-2.94-3.55-5.66-3.08-11.79-3.74-18.11-2.79-10.45,1.56-19.4,6.62-28.17,12.11-3.1,1.94-4.46,5.24-2.69,8.56,1.8,3.37,3.92,6.97,6.85,9.24,12.42,9.62,25.84,17.37,41.79,19.68,3.14.45,3.47,1.33,1.57,3.82-3.95,5.17-7.89,10.37-12.22,15.21-7.82,8.74-17.53,15.22-27.19,21.69-4.48,3-9.57,3.96-14.93,2.95-5.45-1.04-10.87-2.25-16.33-3.21-8.83-1.55-17.62-1.23-26.18,1.51-5.74,1.84-11.74,3.73-14.98,9.4-3.03,5.3-6.11,10.7-8.12,16.43-6.45,18.41-9.64,37.46-9.81,57.58ZM620.88,329.46c.13-.52.28-.79.26-1.04-.84-8.04-1.98-16.04-5.17-23.55-.54-1.28-1.61-2.55-2.77-3.31-7.12-4.7-14.97-5.98-23.4-5.1-18.47,1.94-32.7,10.66-42.99,26.52,24.17,9.14,48.96,9.56,74.06,6.48Z"/>
          <path class="cls-1" d="M455.01,627.07c-3.97-12.55-1.25-24.04,3.83-35.18,6.07-13.32,15.01-24.75,24.16-36.05,14.04-17.33,30.98-31.6,47.84-45.99,6.78-5.79,13.15-12.11,19.36-18.52,7.92-8.19,8.71-9.97,14.47-24.03.37,2.1.99,4.2,1.08,6.31.48,11.36-2.66,21.99-6.27,32.63-3.52,10.38-11.64,16.65-19.36,23.24-13.59,11.6-27.72,22.56-41.26,34.21-12.07,10.4-23.26,21.74-33.06,34.37-5.91,7.61-10.63,15.75-10.35,25.88.03.91-.25,1.83-.44,3.14Z"/>
          <path class="cls-1" d="M676.19,371.21c-1.41,2.05-2.8,4.1-4.22,6.15-4.98,7.19-8.84,14.89-10.27,23.58-.52,3.18-.62,6.5-.41,9.72.35,5.31,4.1,7.89,9.4,7.11,5.28-.78,8.8-3.62,10.75-8.52.37-.93.74-1.86,1.41-2.73.54,4.9-.12,9.64-2.29,14.06-.93,1.89-2.2,3.71-3.65,5.24-3.37,3.52-7.15,6.46-12.51,4.87-5.62-1.66-9.26-5.42-10.76-11.06-1.49-5.62-.36-11.13,1.41-16.45,3.84-11.52,9.58-21.97,18.3-30.61.7-.69,1.47-1.31,2.21-1.96.21.2.42.4.63.6Z"/>
          <path class="cls-1" d="M389.15,701.73c-2.9,4.29-5.95,8.49-8.67,12.89-6.53,10.55-11.32,21.76-11.89,34.38-.11,2.32.03,4.65.08,6.97.17,8.31,7.32,9.9,12.68,9.37,7.76-.77,12.65-5.18,15.16-12.44.38-1.11.92-2.17,1.7-4.01.23,1.32.42,1.86.41,2.4-.1,9.14-1.67,17.81-8.27,24.75-1.72,1.81-3.62,3.52-5.69,4.9-7.2,4.81-16.43,2.57-22.56-5.29-4.64-5.95-5.48-12.86-4.19-19.88,3.77-20.52,13.45-38.02,28.08-52.82.72-.73,1.63-1.28,2.46-1.92l.69.7Z"/>
          <path class="cls-1" d="M510.35,410.65c-.77-3.26-1.51-6.38-2.25-9.5-.25-.07-.5-.14-.75-.21-13.25,19.71-30.07,34.34-54.28,38.41,2.82-1.38,5.71-2.66,8.46-4.18,2.76-1.53,5.4-3.29,8.06-5,13.57-8.73,23.32-20.89,31.26-34.71,1.02-1.78.1-2.58-.93-3.48-1.68-1.46-3.6-2.66-5.16-4.23-5.48-5.5-4.43-15.12,2.1-19.51,3.26-2.2,6.31-5.06,10.88-3.1,5.08,2.19,8.72,7.82,8.09,14.04-.34,3.43-1.72,6.75-2.47,10.16-.25,1.14-.42,2.65.11,3.54,3.7,6.17,2.62,12.81-3.12,17.76ZM505.61,385.06c.29-.04.57-.09.86-.13.36-1.91.98-3.83,1-5.75.01-1.81-.42-3.69-1.03-5.4-.78-2.19-3.76-2.88-6.19-1.69-2.3,1.13-2.59,2.15-.77,4.86,1.89,2.81,4.08,5.41,6.13,8.11Z"/>
          <path class="cls-1" d="M605.42,631.11c-12.49,17.65-29.4,23.57-49.55,21.38-.09-.24-.17-.47-.26-.71,1.28-.34,2.58-.62,3.84-1.03,16.89-5.49,32.31-13.55,45.31-25.88,1.54-1.47,3.22-2.83,5-4,2.25-1.47,4.68-1.01,6.54.94,3.85,4.04,4.09,9.44.6,13.63-1.74,2.09-3.9,3.13-6.65,2.57-2.58-.52-3.54-2.48-4.13-4.74-.11-.42-.26-.83-.7-2.17ZM613.73,627.36c-.43-.24-.86-.48-1.28-.72-.64.94-1.28,1.88-1.91,2.81.53.25,1.47.8,1.54.72.64-.88,1.13-1.86,1.66-2.81Z"/>
        </g>
        <text class="cls-2" transform="translate(453.08 580.8) rotate(-44.78)"><tspan x="0" y="0">OMAR AYESH</tspan></text>
      </g>
    </g>
  </g>
</svg>