<svg xmlns="http://www.w3.org/2000/svg" width="20.792" height="14.727" viewBox="0 0 20.792 14.727">
  <g id="_6dce6e9f9ded369263ba3e875e5a8dfa" data-name="6dce6e9f9ded369263ba3e875e5a8dfa" transform="translate(0 -4)">
    <path id="Path_1" data-name="Path 1" d="M11.746,18.727H9.474a.649.649,0,0,1-.638-.771l1.081-5.674c-.12-.134-.228-.265-.325-.392A4.944,4.944,0,0,1,4.94,15.1,4.893,4.893,0,0,1,0,10.263V4.65A.65.65,0,0,1,.65,4H3.088a.65.65,0,0,1,.65.65v5.613a1.056,1.056,0,0,0,1.2,1.144,1.057,1.057,0,0,0,1.2-1.144V4.65A.65.65,0,0,1,6.791,4H9.23a.65.65,0,0,1,.623.463A17.264,17.264,0,0,0,11.3,7.88,4.891,4.891,0,0,1,15.725,5.2a5.012,5.012,0,0,1,5.067,4.942,5.016,5.016,0,0,1-5.067,4.95,6.15,6.15,0,0,1-2.542-.548l-.8,3.668A.65.65,0,0,1,11.746,18.727Zm-1.487-1.3h.963l.873-3.995a.651.651,0,0,1,.978-.413,4.963,4.963,0,0,0,2.651.777,3.715,3.715,0,0,0,3.768-3.651A3.711,3.711,0,0,0,15.725,6.5a3.785,3.785,0,0,0-3.691,2.984.65.65,0,0,1-1.158.178A17.964,17.964,0,0,1,8.753,5.3H7.441v4.963a2.343,2.343,0,0,1-2.5,2.443,2.344,2.344,0,0,1-2.5-2.442V5.3H1.3v4.963A3.592,3.592,0,0,0,4.939,13.8,3.593,3.593,0,0,0,8.58,10.263V9.973a.65.65,0,0,1,1.233-.287,6.34,6.34,0,0,0,1.27,1.942.65.65,0,0,1,.172.574Z" fill="#fff"/>
    <path id="Path_2" data-name="Path 2" d="M17.682,13.364a4.284,4.284,0,0,1-2.714-1.07.65.65,0,0,1-.226-.638l.171-.811c.327-1.818,1.336-2.853,2.77-2.853a2.686,2.686,0,0,1,0,5.371ZM16.1,11.518a2.813,2.813,0,0,0,1.584.547,1.387,1.387,0,0,0,0-2.773c-.967,0-1.344.962-1.489,1.771Z" transform="translate(-1.969 -0.534)" fill="#fff"/>
  </g>
</svg>
